<?xml version="1.0" standalone="no"?>
<!DOCTYPE svg PUBLIC "-//W3C//DTD SVG 20010904//EN"
 "http://www.w3.org/TR/2001/REC-SVG-20010904/DTD/svg10.dtd">
<svg version="1.0" xmlns="http://www.w3.org/2000/svg"
 width="512.000000pt" height="512.000000pt" viewBox="0 0 512.000000 512.000000"
 preserveAspectRatio="xMidYMid meet">
<metadata>
Created by potrace 1.14, written by Peter Selinger 2001-2017
</metadata>
<g transform="translate(0.000000,512.000000) scale(0.100000,-0.100000)"
fill="#000000" stroke="none">
<path d="M0 2560 l0 -2560 2560 0 2560 0 0 2560 0 2560 -2560 0 -2560 0 0
-2560z m2212 626 l3 -463 430 463 430 463 349 0 349 1 -19 -22 c-10 -12 -216
-235 -457 -496 -385 -419 -436 -477 -424 -491 13 -15 860 -1112 921 -1193 l28
-38 -368 0 -369 1 -310 395 c-170 218 -315 399 -320 404 -7 6 -52 -35 -128
-116 l-117 -125 0 -280 0 -279 -315 0 -315 0 0 1120 0 1120 315 0 315 0 2
-464z"/>
</g>
</svg>
